PathFileType  4	(X/Y/Z) C:\Users\antoi\Documents\MyRepositories\mobilecap\ResultsAnalysis
DataRate	CameraRate	NumFrames	NumMarkers	Units	OrigDataRate	OrigDataStartFrame	OrigNumFrames
100.0	100.0	4	51	mm	100.0	229	261
Frame#	Time	r_knee			r_shank_antsup			r_ankle			r_calc			r_5meta			r_toe			L_knee			L_shank_antsup			L_ankle			L_calc			L_5meta			L_toe			r_sh2			r_sh3			r_sh4			L_sh2			L_sh3			r_thigh1			r_thigh2			r_thigh3			r_thigh4			r_thigh5			L_thigh1			L_thigh2			L_thigh3			L_thigh4			r.ASIS			r.PSIS			L.ASIS			L.PSIS			C7			R_Shoulder			L_Shoulder			R_Sternum			L_Sternum			R_humerus			R_elbow_med			R_elbow_lat			R_forearm			R_wrist_radius			R_wrist_ulna			L_humerus			L_elbow_med			L_elbow_lat			L_forearm			L_wrist_radius			L_wrist_ulna			R_HJC			L_HJC			R_HJC_reg			L_HJC_reg			
		X1	Y1	Z1	X2	Y2	Z2	X3	Y3	Z3	X4	Y4	Z4	X5	Y5	Z5	X6	Y6	Z6	X7	Y7	Z7	X8	Y8	Z8	X9	Y9	Z9	X10	Y10	Z10	X11	Y11	Z11	X12	Y12	Z12	X13	Y13	Z13	X14	Y14	Z14	X15	Y15	Z15	X16	Y16	Z16	X17	Y17	Z17	X18	Y18	Z18	X19	Y19	Z19	X20	Y20	Z20	X21	Y21	Z21	X22	Y22	Z22	X23	Y23	Z23	X24	Y24	Z24	X25	Y25	Z25	X26	Y26	Z26	X27	Y27	Z27	X28	Y28	Z28	X29	Y29	Z29	X30	Y30	Z30	X31	Y31	Z31	X32	Y32	Z32	X33	Y33	Z33	X34	Y34	Z34	X35	Y35	Z35	X36	Y36	Z36	X37	Y37	Z37	X38	Y38	Z38	X39	Y39	Z39	X40	Y40	Z40	X41	Y41	Z41	X42	Y42	Z42	X43	Y43	Z43	X44	Y44	Z44	X45	Y45	Z45	X46	Y46	Z46	X47	Y47	Z47	X48	Y48	Z48	X49	Y49	Z49	X50	Y50	Z50	X51	Y51	Z51	

229	2.28000000	-111.73496	762.07240	-393.99353	-76.58035	662.83135	-399.48971	-181.24619	336.74300	-445.01314	-262.36746	330.13494	-511.89494	-114.99876	208.59530	-411.02996	-36.92604	224.08246	-453.05554	-110.79469	790.97162	-774.43930	-113.72252	704.41558	-803.46135	-169.78778	368.42288	-767.33527	-251.68030	337.36764	-701.93392	-88.40288	254.19528	-808.30668	-15.75040	267.99394	-756.94289	-110.13232	555.73918	-381.32988	-142.08228	687.98836	-369.70091	-188.63362	582.21347	-372.10266	-201.73893	716.20158	-783.56402	-205.17372	594.13395	-786.62578	-89.60110	1090.15271	-377.20219	-64.02058	983.81714	-383.09664	-109.72692	945.71393	-352.52520	-197.48576	1059.74824	-372.38069	-163.04912	949.65062	-369.86643	-71.39043	1086.63127	-757.31943	-43.35299	948.81911	-759.92693	-177.40210	1065.14301	-779.10726	-154.50911	929.65090	-782.75263	-93.67277	1298.81645	-425.10875	-269.08008	1323.93576	-488.87458	-92.48237	1318.09354	-666.97538	-272.96132	1334.87433	-598.72424	-149.64018	1865.35076	-531.88226	-94.35830	1826.07109	-379.18103	-134.85811	1832.24045	-685.69538	-28.63567	1776.15007	-509.74641	-34.46286	1773.12546	-573.06057	-137.86568	1732.13690	-256.17206	-272.75676	1563.71729	-198.87454	-274.31267	1639.96725	-147.11893	-123.92937	1600.44188	-77.29498	-32.51289	1591.89271	-70.46843	-56.07793	1568.98637	-38.71649	-220.00931	1782.47666	-773.57310	-344.54301	1575.35371	-831.21668	-361.38692	1650.83474	-874.95136	-311.20619	1645.27553	-934.59486	-185.25018	1599.03943	-1046.08072	-215.70656	1580.49374	-1067.90250	-175.28591	1187.15772	-451.28276	-179.68618	1210.76469	-656.84559	-151.55295	1222.44189	-464.68565	-157.17920	1238.30084	-623.93916	
230	2.29000000	-108.38959	752.65641	-394.11281	-74.82643	652.92779	-399.89451	-180.07567	326.58431	-444.85059	-261.20142	321.20717	-510.92386	-114.71233	197.11238	-412.65854	-36.61035	212.69199	-454.82761	-108.66650	780.23847	-774.30905	-112.67465	693.79357	-803.43606	-171.70593	358.40377	-765.89362	-254.12436	330.52756	-700.11073	-93.40351	241.32240	-805.74850	-20.27622	253.63236	-754.57173	-108.64699	545.93245	-381.37548	-140.12456	678.24481	-369.88187	-187.34323	572.69074	-371.83626	-200.50746	706.42086	-782.85525	-205.11864	584.30116	-785.22941	-84.79201	1080.26605	-378.45366	-60.45409	973.56379	-385.15167	-105.48974	935.95724	-353.96768	-192.90582	1050.50044	-372.25682	-159.01478	940.18425	-370.49293	-68.79291	1075.99808	-757.31397	-40.65277	938.21914	-760.06261	-174.81158	1054.57890	-779.39195	-151.87606	919.19642	-783.18569	-91.34532	1289.60761	-425.58311	-266.86281	1313.66935	-489.22244	-90.35735	1308.06231	-667.30614	-270.89579	1324.16345	-599.09685	-150.41426	1855.51988	-532.15769	-95.14519	1815.94828	-379.09057	-135.17431	1822.84459	-685.94218	-29.26170	1766.52111	-509.86521	-34.94331	1763.90875	-573.84000	-142.14025	1720.00750	-258.52106	-282.66221	1553.17758	-210.17624	-283.53070	1627.81975	-155.95963	-135.82062	1582.65246	-84.07631	-44.89469	1571.53009	-75.41027	-69.70753	1548.54623	-44.72876	-221.20960	1771.99607	-772.89855	-347.21055	1563.59228	-823.81255	-364.34384	1638.14109	-868.84917	-314.77087	1631.38983	-928.69610	-189.75706	1583.22997	-1039.81464	-220.10412	1564.21313	-1061.26663	-172.40178	1177.45955	-451.21761	-177.03462	1200.34046	-656.85758	-148.84985	1212.93931	-464.76352	-154.69248	1228.14362	-623.93510	
231	2.30000000	-105.66056	741.63908	-394.45211	-73.01870	642.05197	-400.33527	-179.13875	315.41387	-444.48214	-260.32651	311.63906	-509.76519	-114.85195	184.44140	-414.59830	-36.85253	200.05353	-457.14385	-106.30092	768.61119	-774.21942	-111.66032	682.05321	-802.72979	-173.70312	347.59836	-764.42159	-256.49666	322.91860	-698.39617	-98.51557	227.79628	-803.15153	-25.06542	238.56332	-751.97453	-107.14903	535.15224	-381.41734	-137.99575	667.72347	-369.85942	-186.03775	562.28134	-371.53722	-199.09469	695.89186	-782.01858	-205.07909	573.74878	-783.69910	-80.63746	1069.22537	-379.27737	-56.94400	962.39413	-386.66927	-102.02430	925.00109	-355.31435	-188.97438	1040.13435	-372.69707	-155.75064	929.53112	-371.48065	-66.12230	1064.57044	-757.23470	-37.80035	926.79450	-760.19333	-172.03601	1043.17447	-779.71173	-149.01165	907.75968	-783.59799	-89.06721	1279.26152	-425.94850	-264.72545	1302.18296	-489.49548	-88.34058	1297.12866	-667.76576	-268.92932	1312.38977	-599.32450	-151.26299	1844.67585	-532.45656	-95.98769	1804.80659	-379.15438	-135.47164	1812.37206	-686.29337	-29.94906	1755.96166	-509.98682	-35.53582	1753.58486	-574.59032	-146.37014	1707.03657	-261.15430	-291.88277	1541.75813	-221.64952	-292.32357	1614.74130	-164.87639	-147.39038	1564.06832	-91.19136	-56.94108	1550.43773	-80.92203	-82.98796	1527.14957	-51.45783	-222.46542	1760.51953	-772.40217	-349.61931	1550.69952	-816.63048	-367.18404	1624.40120	-862.96059	-318.22040	1616.54974	-923.05936	-193.78279	1566.44476	-1033.52121	-224.12274	1546.95825	-1054.36993	-169.48272	1166.59722	-451.23739	-174.43446	1188.95176	-656.92784	-146.13117	1202.15114	-464.89733	-152.22661	1216.94903	-624.13029	
232	2.31000000	-103.13971	729.71229	-394.85376	-71.07697	630.16334	-400.76145	-178.50056	303.22292	-443.95278	-260.02616	301.51902	-508.57487	-115.44600	170.69727	-416.81455	-37.73550	186.21802	-459.51422	-103.65751	756.13041	-774.20367	-110.71974	669.28939	-801.34805	-175.76281	336.03070	-763.03533	-258.83334	314.43790	-696.60160	-103.80710	213.62997	-800.33730	-30.08917	222.94943	-749.32080	-105.55408	523.41473	-381.55873	-135.76685	656.26374	-369.93894	-184.37046	550.98243	-371.18909	-197.46563	684.62171	-781.08370	-205.07275	562.53769	-782.29858	-77.26263	1057.07182	-379.67924	-54.06481	950.21015	-387.64698	-99.30162	912.91173	-356.38362	-185.70319	1028.53867	-373.51026	-153.08744	917.77706	-372.66573	-63.36018	1052.29556	-757.05009	-34.81875	914.46794	-760.17196	-169.12284	1030.77516	-779.83775	-145.94451	895.36552	-783.95899	-86.78577	1267.84143	-426.28890	-262.68275	1289.47280	-489.70302	-86.36716	1285.19696	-668.22413	-267.02075	1299.49261	-599.40561	-152.15583	1832.77062	-532.73266	-96.81160	1792.70817	-379.26510	-135.76684	1801.04948	-687.04179	-30.71544	1744.43478	-510.11831	-36.08408	1741.95176	-574.63951	-150.59291	1693.14439	-263.88210	-300.36196	1529.42238	-233.05284	-300.70033	1600.68113	-173.82881	-158.58310	1544.54975	-98.72116	-68.66193	1528.59961	-86.96838	-95.89897	1504.90016	-58.86262	-223.67411	1748.08129	-772.05431	-351.79076	1536.79562	-809.46778	-369.99457	1609.48781	-857.19827	-321.50340	1600.66877	-917.48686	-197.31131	1548.75397	-1027.34096	-227.68892	1528.77939	-1047.44730	-166.48864	1154.60137	-451.25889	-171.82433	1176.51382	-656.98713	-143.37097	1190.16670	-465.12254	-149.67032	1204.71641	-624.42301	
